<?xml version="1.0" encoding="utf-8"?>
<!-- Generator: Adobe Illustrator 19.1.0, SVG Export Plug-In . SVG Version: 6.00 Build 0)  -->
<svg version="1.1" id="レイヤー_1" xmlns="http://www.w3.org/2000/svg" xmlns:xlink="http://www.w3.org/1999/xlink" x="0px"
	 y="0px" viewBox="-374 162 419.9 142" style="enable-background:new -374 162 419.9 142;" xml:space="preserve">
<style type="text/css">
	.st0{fill:#080830;}
</style>
<g>
	<g>
		<path class="st0" d="M-337.6,245.6c-9.4,0.3-30.2,3.4-30.2,14.1c0,4.6,4,8.8,14.9,8.8c4.9,0,9.8-0.6,14.6-1.6v4.2
			c-4.5,0.5-11.6,0.6-14.4,0.6c-7.9,0-21.3-0.8-21.3-11.4c0-4,2.3-8.9,13.1-13.1c-0.5-1.2-1.3-3.1-1.3-8.5c0-0.6,0.1-6.4,0.1-6.6
			c0-0.6,0-3.2-0.2-5.6l5.7,0.7c0.9,0.1,1.2,0.3,1.2,0.7c0,0.5-0.6,1.4-0.7,1.6c-0.4,1.6-0.6,9.5-0.6,9.8c0,2.1,0.1,4.3,0.8,6.2
			c2.5-0.7,14.8-3.9,17.5-4.9L-337.6,245.6z M-339,228.4c2,2,3.6,4.2,5,6.8l-3.3,1.8c-1-2.6-2.2-5.1-3.9-7.4L-339,228.4z
			 M-332.1,234.5c-0.7-1.7-2.1-4.4-3.8-6.5l2.3-1.3c2.4,2.3,3.9,4.5,4.9,6.1L-332.1,234.5z"/>
		<path class="st0" d="M-313.2,256.9c-0.8,1.1-2.6,3.3-2.6,5.9c0,3.6,3.3,5.2,12.7,5.2c2.4,0,9.7-0.1,19.4-2.6v6.1
			c-4.6,0.8-13.2,1.2-17.7,1.2s-18.6,0-18.6-8.5c0-0.4,0-4.3,4.3-8.6L-313.2,256.9z M-315.2,232.3c5.9-1.2,11.2-1.2,12.3-1.2
			c5.2,0,10.6,0.6,15.6,2l-1.2,5.9c-7.9-4.1-17.9-4.1-19.6-4.1c-0.7,0-3.5,0-7,0.4L-315.2,232.3z"/>
		<path class="st0" d="M-272.2,234.1c14.7-0.2,30.9-1.3,42.8-2.2v3.8c-0.9-0.1-2-0.1-3-0.1c-10.7,0-21.5,5.9-21.5,18.5
			c0,8.3,4.6,12.9,10.7,14.5c2.8,0.8,5.3,0.7,7.4,0.7l-0.4,3.3c-3.9-0.1-11.4-0.3-17.3-4.4c-2.2-1.5-6.5-5.2-6.5-13.3
			c0-10.1,7.3-15.2,13.1-18.9c-9.2,0.2-19.3,1.1-25,1.6L-272.2,234.1z M-235.2,242c2.1,1.8,4.1,4.1,5.6,6.4l-3.1,2.1
			c-0.8-1.6-2.7-4.9-4.7-7L-235.2,242z M-230.1,239.8c2.1,1.6,3.9,3.5,5.5,5.6l-3.2,2.1c-1.1-2-2.7-4.5-4.4-6.2L-230.1,239.8z"/>
		<path class="st0" d="M-214.8,239.5c3.3,0.4,7.4,0.3,9.7,0.3c0.2-1.5,0.9-8.8,1-10.4l5.2,0.9c1.3,0.2,1.5,0.5,1.5,0.7
			s-0.6,1.1-0.7,1.3c-0.2,0.5-1.2,6.8-1.2,7.3c2.3-0.1,8.4-0.2,13.8-0.9v3.5c-3.2-0.1-9.4,0.1-14.2,0.2c-0.7,4.9-1,7.9-1.2,9.7
			c3.2-0.1,9.1-0.2,14.5-0.9v3.6c-4-0.2-13.7,0-14.8,0c-0.3,3.4-0.6,6.3-0.6,8.4c0,6.5,4,8.7,11,8.7c3.3,0,12-0.5,12-9.1
			c0-4.2-2-8.4-2.7-9.9l2.5-1.2c2.1,3.3,5.2,8.2,5.2,12.9c0,10.2-13.5,10.3-16.9,10.3c-13.5,0-16.5-5-16.5-11.3
			c0-2.1,0.4-6.1,0.6-8.4c-3.5,0.2-6.3,0.3-9.2,0.6v-3.6c2.3,0.3,4.9,0.3,9.5,0.3c0.1-1.4,0.8-7.7,1.1-9.7c-3.4,0.2-6.1,0.3-9.3,0.5
			v-3.8H-214.8z"/>
		<path class="st0" d="M-141.4,260c-1.8-1-3.8-2.1-7.2-5v20.6h-6.6v-18.5c-3.1,2.5-5.7,4.2-7,5l-2.3-2c5.7-4.1,10.9-9.9,13.4-18.9
			h-12.4v-2.8h8.2v-6.6c0-2.4-0.1-2.8-0.2-3.6l6.7,0.1c0.3,0,0.6,0,0.6,0.5c0,0.3-0.1,0.3-0.5,1.1v8.6h6.4c-0.8,2.5-2,6.2-5.3,10.8
			c1.3,2.2,3.5,5.2,7.8,8.7L-141.4,260z M-142.2,246.9V244h8.6v-12.1c0-1.1-0.2-2.7-0.4-3.8l7.1,0.1c0.3,0,0.7,0,0.7,0.5
			c0,0.3-0.2,0.5-0.5,1V244h9.3v2.8h-9.3v24.4h10.5v2.8h-29.7v-2.8h12.3v-24.3H-142.2z"/>
		<path class="st0" d="M-63,275.6c-2-0.3-8.3-1.2-14.8-4.7c-5.5-3-7.8-6.5-9.4-10.9h-6.4v9.1c1.7-0.3,9.1-1.4,10.6-1.7l-0.6,2.8
			c-3.7,1.1-7.6,2-11,2.8c-3.3,0.8-9.2,2.2-10.1,2.4c-0.3,0.3-0.8,0.6-1,0.6c-0.1,0-0.4-0.1-0.5-0.2l-1.6-5.1c2,0,5.4-0.4,7.4-0.7
			v-27.4c-3.5,1.5-5.2,2-6.8,2.6l-2-2.4c10.1-3.7,16.7-10.6,19-14.6h10.7c5.1,8.1,12.9,12.2,18.9,14.4l-1.5,2.5
			c-2-0.6-4.2-1.3-7.1-2.5v17.1c1.1-1.2,1.4-1.6,1.9-2.4l4.6,5.5c0.4,0.4-0.3,0.8-1.2,1c-3.1,1.7-6.9,3.6-9.5,4.5
			c2.4,1.6,5.1,2.9,12.1,4.6L-63,275.6z M-70.7,242c-8-3.6-11.8-6.7-14.3-9c-5.1,4.8-11.9,8.1-14,9h10.6v-1.9c0-0.1,0-1.6-0.2-2.9
			l7.1,0.1c0.2,0,0.5,0.4,0.5,0.7c0,0.3-0.1,0.5-0.3,0.8v3.2H-70.7z M-93.6,249.4H-76v-4.6h-17.6V249.4z M-76.1,252.3h-17.6v4.9
			h17.6V252.3z M-80.1,260c0.9,2.7,2.6,4.8,4,6.1c1.7-1.4,4.6-3.9,6.7-6.1H-80.1z"/>
	</g>
	<g>
		<path class="st0" d="M16.8,235.8c-0.7,0.5-0.8,1.5-0.3,2.1c2.9,3.8,4.4,8.3,4.4,13c0,11.8-9.6,21.5-21.5,21.5S-22,262.8-22,251
			c0-11.8,9.6-21.5,21.5-21.5c4.8,0,9.3,1.5,13,4.4c0.7,0.5,1.6,0.4,2.1-0.3c0.5-0.7,0.4-1.6-0.3-2.1c-4.3-3.3-9.5-5-14.9-5
			c-13.5,0-24.5,11-24.5,24.5s11,24.5,24.5,24.5s24.5-11,24.5-24.5c0-5.4-1.7-10.6-5-14.9C18.5,235.4,17.5,235.3,16.8,235.8z"/>
		<path class="st0" d="M-0.5,218.3c-18,0-32.7,14.7-32.7,32.7s14.7,32.7,32.7,32.7S32.2,269,32.2,251S17.5,218.3-0.5,218.3z
			 M-0.5,280.7c-16.3,0-29.7-13.3-29.7-29.7s13.3-29.7,29.7-29.7c16.3,0,29.7,13.3,29.7,29.7S15.8,280.7-0.5,280.7z"/>
		<path class="st0" d="M-36.3,218.3c-0.8,0-1.5,0.7-1.5,1.5v12.8h-3.1v-12.8c0-0.8-0.7-1.5-1.5-1.5s-1.6,0.7-1.6,1.5v12.8h-3v-12.8
			c0-0.8-0.7-1.5-1.5-1.5s-1.5,0.7-1.5,1.5v18.4c0,3.7,2.6,6.8,6.1,7.5v36.5c0,0.8,0.7,1.5,1.5,1.5s1.5-0.7,1.5-1.5v-36.5
			c3.5-0.7,6.1-3.8,6.1-7.5v-18.4C-34.8,219-35.5,218.3-36.3,218.3z M-42.4,242.8c-2.5,0-4.6-2.1-4.6-4.6v-2.6h9.2v2.6
			C-37.8,240.8-39.9,242.8-42.4,242.8z"/>
		<path class="st0" d="M44.5,218.3c-4.2,0-7.7,3.4-7.7,7.7v28.1c0,0.8,0.7,1.5,1.5,1.5h4.6v26.6c0,0.8,0.7,1.5,1.5,1.5
			s1.5-0.7,1.5-1.5v-62.4C46,219,45.3,218.3,44.5,218.3z M42.9,252.5h-3.1V226c0-2,1.3-3.7,3.1-4.3V252.5z"/>
	</g>
</g>
</svg>
